<svg xmlns="http://www.w3.org/2000/svg" viewBox="0 0 960 540" role="img">
  <defs>
    <linearGradient id="bg" x2="1" y2="1">
      <stop stop-color="#050c08"/>
      <stop offset="1" stop-color="#19372a"/>
    </linearGradient>
  </defs>
  <rect width="960" height="540" fill="url(#bg)"/>
  <g fill="none" stroke="#6d897c" stroke-opacity=".2">
    <path d="M60 420L250 230l150 120 170-210 330 280"/>
    <path d="M60 450h840M90 480h780"/>
  </g>
  <g fill="none" stroke="#00ff41">
    <circle cx="494" cy="270" r="138" stroke-width="3"/>
    <circle cx="494" cy="270" r="72" stroke-opacity=".55"/>
    <path d="M494 92v96M494 352v96M316 270h96M576 270h96" stroke-width="3"/>
    <rect x="412" y="202" width="164" height="136" rx="8" stroke-width="3"/>
    <path d="M412 236h-28v-28M576 236h28v-28M412 304h-28v28M576 304h28v28" stroke-width="3"/>
  </g>
  <circle cx="494" cy="270" r="7" fill="#00ff41"/>
  <g fill="#d9e7df" font-family="monospace">
    <text x="54" y="62" font-size="20" opacity=".72">VISION SYSTEM / TARGET LOCK</text>
    <text x="710" y="458" font-size="14" opacity=".58">PIPELINE</text>
    <text x="710" y="490" font-size="28" fill="#00ff41">DETERMINISTIC</text>
  </g>
</svg>
