<svg xmlns="http://www.w3.org/2000/svg" viewBox="0 0 960 540" role="img">
  <defs>
    <linearGradient id="bg" x2="1" y2="1">
      <stop stop-color="#050c08"/>
      <stop offset="1" stop-color="#173326"/>
    </linearGradient>
    <filter id="glow"><feGaussianBlur stdDeviation="6"/></filter>
  </defs>
  <rect width="960" height="540" fill="url(#bg)"/>
  <g stroke="#6d897c" stroke-opacity=".18">
    <path d="M0 90h960M0 180h960M0 270h960M0 360h960M0 450h960"/>
    <path d="M120 0v540M240 0v540M360 0v540M480 0v540M600 0v540M720 0v540M840 0v540"/>
  </g>
  <g fill="#00ff41" opacity=".18" filter="url(#glow)">
    <path d="M152 430 200 150 218 430Z"/><path d="M312 430 360 235 378 430Z"/>
    <path d="M472 430 520 300 538 430Z"/><path d="M612 430 660 350 678 430Z"/>
    <path d="M742 430 790 385 808 430Z"/>
  </g>
  <g fill="none" stroke="#00ff41" stroke-width="3" stroke-linejoin="round">
    <path d="M152 430 200 150 218 430"/><path d="M312 430 360 235 378 430"/>
    <path d="M472 430 520 300 538 430"/><path d="M612 430 660 350 678 430"/>
    <path d="M742 430 790 385 808 430"/>
    <path d="M60 430H900" stroke-opacity=".5"/>
  </g>
  <g stroke="#d9e7df" stroke-opacity=".3" stroke-width="1.5" stroke-dasharray="5 6">
    <path d="M200 120V440M360 130V440M520 150V440M660 175V440M790 200V440"/>
  </g>
  <g fill="#d9e7df" font-family="monospace">
    <text x="54" y="62" font-size="20" opacity=".72">ENVELOPE SPECTRUM — BPFI HARMONICS</text>
    <text x="190" y="138" font-size="13" fill="#00ff41" opacity=".85">1x</text>
    <text x="350" y="223" font-size="13" fill="#00ff41" opacity=".7">2x</text>
    <text x="744" y="490" font-size="42" fill="#00ff41">100%</text>
    <text x="744" y="516" font-size="13" opacity=".58">FAULT DETECT</text>
  </g>
</svg>
