<svg xmlns="http://www.w3.org/2000/svg" viewBox="0 0 960 540" role="img">
  <defs>
    <linearGradient id="bg" x2="1" y2="1">
      <stop stop-color="#050c08"/>
      <stop offset="1" stop-color="#18382a"/>
    </linearGradient>
  </defs>
  <rect width="960" height="540" fill="url(#bg)"/>
  <g fill="none" stroke="#6d897c" stroke-opacity=".28" stroke-width="2">
    <path d="M120 270h130M340 190l120-70M340 270h120M340 350l120 70M550 120l120 70M550 270h120M550 420l120-70"/>
  </g>
  <g fill="#0b1a10" stroke="#00ff41" stroke-width="3">
    <circle cx="120" cy="270" r="42"/><circle cx="290" cy="190" r="42"/><circle cx="290" cy="270" r="42"/>
    <circle cx="290" cy="350" r="42"/><circle cx="505" cy="120" r="42"/><circle cx="505" cy="270" r="42"/>
    <circle cx="505" cy="420" r="42"/><circle cx="720" cy="190" r="42"/><circle cx="720" cy="350" r="42"/>
  </g>
  <rect x="786" y="170" width="118" height="200" rx="14" fill="#0b1a10" stroke="#00ff41" stroke-width="3"/>
  <g fill="#00ff41"><circle cx="120" cy="270" r="9"/><circle cx="290" cy="190" r="9"/><circle cx="290" cy="270" r="9"/><circle cx="290" cy="350" r="9"/><circle cx="505" cy="120" r="9"/><circle cx="505" cy="270" r="9"/><circle cx="505" cy="420" r="9"/><circle cx="720" cy="190" r="9"/><circle cx="720" cy="350" r="9"/></g>
  <g fill="#d9e7df" font-family="monospace">
    <text x="54" y="62" font-size="20" opacity=".72">EDGE INFERENCE PIPELINE</text>
    <text x="806" y="230" font-size="14" opacity=".62">JETSON</text>
    <text x="806" y="258" font-size="14" opacity=".62">NANO</text>
    <text x="806" y="322" font-size="28" fill="#00ff41">99.9%</text>
    <text x="806" y="346" font-size="11" opacity=".58">SM UTIL</text>
  </g>
</svg>
