<svg xmlns="http://www.w3.org/2000/svg" viewBox="0 0 960 540" role="img">
  <defs>
    <linearGradient id="bg" x2="1" y2="1">
      <stop stop-color="#050c08"/>
      <stop offset="1" stop-color="#173326"/>
    </linearGradient>
    <filter id="glow"><feGaussianBlur stdDeviation="6"/></filter>
  </defs>
  <rect width="960" height="540" fill="url(#bg)"/>
  <g stroke="#6d897c" stroke-opacity=".18">
    <path d="M0 90h960M0 180h960M0 270h960M0 360h960M0 450h960"/>
    <path d="M120 0v540M240 0v540M360 0v540M480 0v540M600 0v540M720 0v540M840 0v540"/>
  </g>
  <path d="M60 430H900" stroke="#00ff41" stroke-opacity=".5" stroke-width="2"/>
  <path d="M150 430 Q485 -170 820 430" fill="none" stroke="#00ff41" stroke-opacity=".18" stroke-width="14" filter="url(#glow)"/>
  <path d="M150 430 Q485 -170 820 430" fill="none" stroke="#00ff41" stroke-width="3"/>
  <path d="M485 130V430" stroke="#d9e7df" stroke-opacity=".3" stroke-width="1.5" stroke-dasharray="5 6"/>
  <circle cx="485" cy="130" r="5" fill="#00ff41"/>
  <path d="M138 430 150 406 162 430Z" fill="#00ff41"/>
  <g stroke="#00ff41" stroke-width="3"><path d="M810 420l20 20M830 420l-20 20"/></g>
  <g fill="#d9e7df" font-family="monospace">
    <text x="54" y="62" font-size="20" opacity=".72">MORTAR BALLISTIC SIM</text>
    <text x="54" y="86" font-size="13" opacity=".5">ISA ATMOSPHERE · QUADRATIC DRAG · WIND</text>
    <text x="500" y="125" font-size="13" fill="#00ff41" opacity=".8">apex</text>
    <text x="792" y="490" font-size="42" fill="#00ff41">RK4</text>
    <text x="792" y="514" font-size="13" opacity=".58">INTEGRATOR</text>
  </g>
</svg>
