<svg xmlns="http://www.w3.org/2000/svg" viewBox="0 0 960 540" role="img">
  <defs>
    <linearGradient id="bg" x2="1" y2="1">
      <stop stop-color="#050c08"/>
      <stop offset="1" stop-color="#173326"/>
    </linearGradient>
    <filter id="glow"><feGaussianBlur stdDeviation="8"/></filter>
  </defs>
  <rect width="960" height="540" fill="url(#bg)"/>
  <g stroke="#6d897c" stroke-opacity=".18">
    <path d="M0 90h960M0 180h960M0 270h960M0 360h960M0 450h960"/>
    <path d="M120 0v540M240 0v540M360 0v540M480 0v540M600 0v540M720 0v540M840 0v540"/>
  </g>
  <g fill="#00ff41" opacity=".2" filter="url(#glow)">
    <rect x="150" y="112" width="130" height="90"/><rect x="410" y="210" width="150" height="100"/>
    <rect x="650" y="118" width="120" height="150"/><rect x="250" y="340" width="180" height="80"/>
  </g>
  <g fill="none" stroke="#00ff41" stroke-width="3">
    <rect x="150" y="112" width="130" height="90"/><rect x="410" y="210" width="150" height="100"/>
    <rect x="650" y="118" width="120" height="150"/><rect x="250" y="340" width="180" height="80"/>
    <path d="M280 157h83l47 103M560 260h90M430 380h170l50-187"/>
  </g>
  <g fill="#d9e7df" font-family="monospace">
    <text x="54" y="62" font-size="20" opacity=".72">SPARSE COMPUTE MAP</text>
    <text x="744" y="490" font-size="42" fill="#00ff41">7.8x</text>
    <text x="744" y="516" font-size="13" opacity=".58">SPEEDUP</text>
  </g>
</svg>
